<?xml version="1.0" encoding="UTF-8"?>
<svg width="40px" height="40px" viewBox="0 0 40 40" version="1.1" xmlns="http://www.w3.org/2000/svg" xmlns:xlink="http://www.w3.org/1999/xlink">
    <!-- Generator: Sketch 46.2 (44496) - http://www.bohemiancoding.com/sketch -->
    <title>Github</title>
    <desc>Created with Sketch.</desc>
    <defs></defs>
    <g id="Page-1" stroke="none" stroke-width="1" fill="none" fill-rule="evenodd">
        <g id="News" transform="translate(-962.000000, -1334.000000)" fill="#BDBDBD">
            <g id="Group-5" transform="translate(0.000000, 1233.000000)">
                <path d="M982,141 C970.954304,141 962,132.045696 962,121 C962,109.954304 970.954304,101 982,101 C993.045696,101 1002,109.954304 1002,121 C1002,132.045696 993.045696,141 982,141 Z M973.695636,121.379027 C973.659559,121.37894 974.090336,122.290652 974.102231,122.290371 C975.041917,123.967193 976.85417,125.010451 979.910732,125.299012 C979.474449,125.624356 978.950393,126.242066 978.87811,126.956174 C978.329529,127.304983 977.226559,127.419773 976.368837,127.154044 C975.167123,126.781135 974.70696,124.442843 972.907616,124.775797 C972.517801,124.848096 972.595247,125.100507 972.93214,125.314867 C973.480721,125.663676 973.997032,126.100005 974.395237,127.029107 C974.701152,127.742581 975.343959,129.017321 977.376935,129.017321 C978.183671,129.017321 978.749032,128.922191 978.749032,128.922191 C978.749032,128.922191 978.764521,130.742977 978.764521,131.450743 C978.764521,132.266957 977.64348,132.497171 977.64348,132.889741 C977.64348,133.045119 978.014579,133.059706 978.312749,133.059706 C978.901989,133.059706 980.128228,132.576446 980.128228,131.727888 C980.128228,131.053734 980.1392,128.787107 980.1392,128.390732 C980.1392,127.523782 980.61227,127.249174 980.61227,127.249174 C980.61227,127.249174 980.671,131.876925 980.499327,132.497171 C980.297966,133.2265 979.934611,133.123126 979.934611,133.44847 C979.934611,133.932364 981.410616,133.567065 981.899821,132.504782 C982.278019,131.677786 982.112799,127.138189 982.112799,127.138189 L982.516168,127.129944 C982.516168,127.129944 982.538756,129.208215 982.525203,130.158245 C982.511005,131.141888 982.443239,132.386186 983.037642,132.972821 C983.428102,133.358414 984.694356,134.035104 984.694356,133.41676 C984.694356,133.057169 984.000562,132.761632 984.000562,131.788771 L984.000562,127.312594 C984.554306,127.312594 984.471051,128.78457 984.471051,128.78457 L984.511711,131.519236 C984.511711,131.519236 984.389732,132.515563 985.608226,132.932866 C986.038056,133.080634 986.95838,133.120589 987.001621,132.872617 C987.044862,132.624011 985.893488,132.254273 985.883162,131.482453 C985.876708,131.011877 985.90446,130.737269 985.90446,128.691977 C985.90446,126.646685 985.625007,125.890719 984.651115,125.28823 C987.656691,124.984449 989.516702,124.253788 990.423474,122.296713 C990.494278,122.298998 990.792603,121.382516 990.753913,121.382832 C990.957211,120.64399 991.066927,119.770064 991.08887,118.735051 C991.083707,115.92872 989.716773,114.936198 989.4541,114.470062 C989.841333,112.345495 989.389561,111.378341 989.179809,111.046655 C988.405343,110.775852 986.48531,111.743006 985.436553,112.42477 C983.726272,111.933266 980.112093,111.980831 978.756776,112.55161 C976.255894,110.791707 974.932846,111.061242 974.932846,111.061242 C974.932846,111.061242 974.077706,112.567465 974.70696,114.771307 C973.884089,115.80188 973.27097,116.531209 973.27097,118.464248 C973.27097,119.553168 973.401338,120.527932 973.695636,121.379027 Z" id="Github"></path>
            </g>
        </g>
    </g>
</svg>