<?xml version="1.0" encoding="utf-8"?>
<!-- Generator: Adobe Illustrator 18.1.1, SVG Export Plug-In . SVG Version: 6.00 Build 0)  -->
<svg version="1.1" id="Layer_1" xmlns="http://www.w3.org/2000/svg" xmlns:xlink="http://www.w3.org/1999/xlink" x="0px" y="0px"
	 viewBox="0 0 37.2 37.2" style="enable-background:new 0 0 37.2 37.2;" xml:space="preserve">
<style type="text/css">
	.st0{fill:#CCCBCB;}
	.st1{fill:#FFFFFF;}
</style>
<g>
	<path class="st0" d="M18.6,35.7c9.4,0,17-7.6,17-17c0-9.4-7.6-17-17-17c-9.4,0-17,7.6-17,17C1.6,28.1,9.2,35.7,18.6,35.7"/>
	<g>
		<path class="st1" d="M18.8,20.3l8.8-7.4c-0.4-0.5-1-0.7-1.7-0.7H11.3c-0.8,0-1.5,0.4-1.9,1L18.8,20.3z"/>
		<path class="st1" d="M28.2,23.6c0.1-0.2,0.1-0.4,0.1-0.6v-8.6c0-0.3-0.1-0.6-0.2-0.8l-6.5,5.5L28.2,23.6z"/>
		<path class="st1" d="M20.9,19.6l-2.1,1.7l-2.4-1.8l-7,4.8c0.4,0.5,1.1,0.9,1.8,0.9H26c0.7,0,1.4-0.3,1.8-0.9L20.9,19.6z"/>
		<path class="st1" d="M9,14c0,0.1,0,0.3,0,0.4V23c0,0.2,0,0.4,0.1,0.6l6.6-4.6L9,14z"/>
	</g>
</g>
</svg>
